<svg width="28" height="28" viewBox="0 0 28 28" fill="none" xmlns="http://www.w3.org/2000/svg">
<path d="M14 2.33325C7.56 2.33325 2.33333 7.55992 2.33333 13.9999C2.33333 20.4399 7.56 25.6666 14 25.6666C20.44 25.6666 25.6667 20.4399 25.6667 13.9999C25.6667 7.55992 20.44 2.33325 14 2.33325ZM14 5.83325C15.9367 5.83325 17.5 7.39659 17.5 9.33325C17.5 11.2699 15.9367 12.8333 14 12.8333C12.0633 12.8333 10.5 11.2699 10.5 9.33325C10.5 7.39659 12.0633 5.83325 14 5.83325ZM14 22.3999C11.0833 22.3999 8.505 20.9066 7 18.6433C7.035 16.3216 11.6667 15.0499 14 15.0499C16.3217 15.0499 20.965 16.3216 21 18.6433C19.495 20.9066 16.9167 22.3999 14 22.3999Z" fill="#7F9688"/>
</svg>
