<svg width="76" height="36" viewBox="0 0 76 36" fill="none" xmlns="http://www.w3.org/2000/svg">
<path opacity="0.2" fill-rule="evenodd" clip-rule="evenodd" d="M22.7661 2.37857C19.3177 7.33269 2.24911 32.084 1.22484 33.6163C0.635721 34.4975 0.0868119 35.3942 0.0051246 35.6091C-0.126949 35.9568 2.1748 36 20.8784 36C33.0256 36 41.9 35.9031 41.9 35.7706C41.9 35.6444 40.7526 33.9102 39.3502 31.9166L36.8005 28.2916L26.9324 28.2245L17.0643 28.1571L22.901 20.0075L28.7379 11.8581L34.369 19.4932C37.4663 23.6926 41.4689 29.1245 43.2638 31.5643L46.5274 36H52.2509C55.4807 36 57.9374 35.9005 57.8896 35.7717C57.843 35.6459 52.1364 27.5505 45.2082 17.7819L32.6116 0.0205714L28.5165 0.0102857L24.4217 0L22.7661 2.37857ZM36.612 0.298286C36.6702 0.4752 38.0844 2.55754 39.7543 4.92583L42.7907 9.23194L51.8984 9.24454C60.442 9.25637 61.067 9.28851 61.9882 9.76346C64.7638 11.1942 64.8564 15.2694 62.1518 16.9586C61.363 17.451 60.9125 17.4857 55.2937 17.4857C51.2765 17.4857 49.2799 17.5749 49.2799 17.7547C49.2799 17.9028 50.6724 19.8699 52.3741 22.1261L55.4682 26.2286H60.344C65.7026 26.2286 66.8154 26.0331 69.4342 24.6322C70.232 24.2056 71.5629 23.1429 72.3918 22.2706C74.8592 19.674 76 16.8223 76 13.2503C76 7.44531 72.9297 2.94094 67.475 0.743657L65.9481 0.128571L51.2269 0.0524571C39.5306 -0.00797142 36.5277 0.0426857 36.612 0.298286Z" fill="white"/>
</svg>
