<svg width="98" height="98" viewBox="0 0 98 98" fill="none" xmlns="http://www.w3.org/2000/svg">
<path fill-rule="evenodd" clip-rule="evenodd" d="M42.7571 0.268795C31.4594 1.74456 21.3477 6.88703 13.4241 15.1867C6.5654 22.3708 2.02076 31.5263 0.443926 41.336C-0.0480587 44.3961 -0.154879 51.6535 0.243686 54.9314C2.10519 70.2408 10.995 83.6745 24.4836 91.5613C29.3751 94.4213 34.9814 96.4239 41.0237 97.4698C44.349 98.0452 51.4039 98.1804 54.9361 97.7361C76.0235 95.0844 92.9173 79.4399 97.1275 58.6653C98.0215 54.2535 98.2629 47.4897 97.6911 42.8698C94.949 20.7152 77.2515 3.01313 55.1026 0.270327C52.1976 -0.0894699 45.5057 -0.0902358 42.7571 0.268795ZM54.5303 6.6046C69.9431 8.54394 83.5631 19.3783 89.0448 34.0597C92.0099 42.0016 92.5105 51.2593 90.4179 59.4586C86.5975 74.4284 75.0406 86.1818 60.1195 90.2723C51.6362 92.5978 41.9887 92.1163 33.7494 88.9556C21.0024 84.0657 11.1675 73.1135 7.63762 59.8774C5.81058 53.027 5.81058 44.9637 7.63762 38.1134C9.63829 30.6107 13.6806 23.723 19.236 18.3502C28.7462 9.15267 41.3765 4.94941 54.5303 6.6046ZM68.9835 30.8324C68.7729 30.9467 62.1183 37.5138 54.1956 45.4263L39.7906 59.8125L34.5737 54.6156C31.7043 51.7573 29.1685 49.3234 28.9386 49.207C28.7085 49.0905 28.0624 48.9958 27.5029 48.9961C25.6343 48.9975 24.4773 50.1548 24.4759 52.0239C24.4755 52.5836 24.5703 53.2298 24.6867 53.46C24.9878 54.0553 37.6736 66.7721 38.2967 67.1032C38.9095 67.4287 40.5985 67.4657 41.1904 67.1664C41.7842 66.8663 72.8748 35.7958 73.2073 35.1703C73.3585 34.8857 73.4818 34.1964 73.4814 33.6384C73.4801 31.7536 72.3204 30.6103 70.4192 30.6195C69.8402 30.6224 69.1941 30.7181 68.9835 30.8324Z" fill="#136849"/>
</svg>
