<svg width="40" height="40" viewBox="0 0 40 40" fill="none" xmlns="http://www.w3.org/2000/svg">
<rect width="40" height="40" rx="20" fill="white"/>
<path d="M13.9531 27.8721H26.0469C27.9453 27.8721 28.9297 26.8877 28.9297 25.0156V14.3193C28.9297 12.4385 27.9453 11.4629 26.0469 11.4629H13.9531C12.0547 11.4629 11.0703 12.4385 11.0703 14.3193V25.0156C11.0703 26.8965 12.0547 27.8721 13.9531 27.8721ZM13.9268 26.1494C13.1973 26.1494 12.793 25.7627 12.793 24.998V16.877C12.793 16.1035 13.1973 15.7256 13.9268 15.7256H26.0557C26.7939 15.7256 27.207 16.1035 27.207 16.877V24.998C27.207 25.7627 26.7939 26.1494 26.0557 26.1494H13.9268ZM18.3037 18.7754H18.8223C19.1387 18.7754 19.2441 18.6787 19.2441 18.3623V17.8525C19.2441 17.5361 19.1387 17.4395 18.8223 17.4395H18.3037C17.9961 17.4395 17.8906 17.5361 17.8906 17.8525V18.3623C17.8906 18.6787 17.9961 18.7754 18.3037 18.7754ZM21.1865 18.7754H21.6963C22.0127 18.7754 22.1182 18.6787 22.1182 18.3623V17.8525C22.1182 17.5361 22.0127 17.4395 21.6963 17.4395H21.1865C20.8701 17.4395 20.7646 17.5361 20.7646 17.8525V18.3623C20.7646 18.6787 20.8701 18.7754 21.1865 18.7754ZM24.0605 18.7754H24.5703C24.8867 18.7754 24.9922 18.6787 24.9922 18.3623V17.8525C24.9922 17.5361 24.8867 17.4395 24.5703 17.4395H24.0605C23.7441 17.4395 23.6387 17.5361 23.6387 17.8525V18.3623C23.6387 18.6787 23.7441 18.7754 24.0605 18.7754ZM15.4297 21.6055H15.9482C16.2646 21.6055 16.3701 21.5088 16.3701 21.1924V20.6826C16.3701 20.3662 16.2646 20.2695 15.9482 20.2695H15.4297C15.1221 20.2695 15.0166 20.3662 15.0166 20.6826V21.1924C15.0166 21.5088 15.1221 21.6055 15.4297 21.6055ZM18.3037 21.6055H18.8223C19.1387 21.6055 19.2441 21.5088 19.2441 21.1924V20.6826C19.2441 20.3662 19.1387 20.2695 18.8223 20.2695H18.3037C17.9961 20.2695 17.8906 20.3662 17.8906 20.6826V21.1924C17.8906 21.5088 17.9961 21.6055 18.3037 21.6055ZM21.1865 21.6055H21.6963C22.0127 21.6055 22.1182 21.5088 22.1182 21.1924V20.6826C22.1182 20.3662 22.0127 20.2695 21.6963 20.2695H21.1865C20.8701 20.2695 20.7646 20.3662 20.7646 20.6826V21.1924C20.7646 21.5088 20.8701 21.6055 21.1865 21.6055ZM24.0605 21.6055H24.5703C24.8867 21.6055 24.9922 21.5088 24.9922 21.1924V20.6826C24.9922 20.3662 24.8867 20.2695 24.5703 20.2695H24.0605C23.7441 20.2695 23.6387 20.3662 23.6387 20.6826V21.1924C23.6387 21.5088 23.7441 21.6055 24.0605 21.6055ZM15.4297 24.4355H15.9482C16.2646 24.4355 16.3701 24.3389 16.3701 24.0225V23.5127C16.3701 23.1963 16.2646 23.0996 15.9482 23.0996H15.4297C15.1221 23.0996 15.0166 23.1963 15.0166 23.5127V24.0225C15.0166 24.3389 15.1221 24.4355 15.4297 24.4355ZM18.3037 24.4355H18.8223C19.1387 24.4355 19.2441 24.3389 19.2441 24.0225V23.5127C19.2441 23.1963 19.1387 23.0996 18.8223 23.0996H18.3037C17.9961 23.0996 17.8906 23.1963 17.8906 23.5127V24.0225C17.8906 24.3389 17.9961 24.4355 18.3037 24.4355ZM21.1865 24.4355H21.6963C22.0127 24.4355 22.1182 24.3389 22.1182 24.0225V23.5127C22.1182 23.1963 22.0127 23.0996 21.6963 23.0996H21.1865C20.8701 23.0996 20.7646 23.1963 20.7646 23.5127V24.0225C20.7646 24.3389 20.8701 24.4355 21.1865 24.4355Z" fill="#136849"/>
</svg>
