<svg width="24" height="24" viewBox="0 0 24 24" fill="none" xmlns="http://www.w3.org/2000/svg">
<path d="M3.9375 23.4961H20.0625C22.5938 23.4961 23.9062 22.1836 23.9062 19.6875V5.42578C23.9062 2.91797 22.5938 1.61719 20.0625 1.61719H3.9375C1.40625 1.61719 0.09375 2.91797 0.09375 5.42578V19.6875C0.09375 22.1953 1.40625 23.4961 3.9375 23.4961ZM3.90234 21.1992C2.92969 21.1992 2.39062 20.6836 2.39062 19.6641V8.83594C2.39062 7.80469 2.92969 7.30078 3.90234 7.30078H20.0742C21.0586 7.30078 21.6094 7.80469 21.6094 8.83594V19.6641C21.6094 20.6836 21.0586 21.1992 20.0742 21.1992H3.90234ZM9.73828 11.3672H10.4297C10.8516 11.3672 10.9922 11.2383 10.9922 10.8164V10.1367C10.9922 9.71484 10.8516 9.58594 10.4297 9.58594H9.73828C9.32812 9.58594 9.1875 9.71484 9.1875 10.1367V10.8164C9.1875 11.2383 9.32812 11.3672 9.73828 11.3672ZM13.582 11.3672H14.2617C14.6836 11.3672 14.8242 11.2383 14.8242 10.8164V10.1367C14.8242 9.71484 14.6836 9.58594 14.2617 9.58594H13.582C13.1602 9.58594 13.0195 9.71484 13.0195 10.1367V10.8164C13.0195 11.2383 13.1602 11.3672 13.582 11.3672ZM17.4141 11.3672H18.0938C18.5156 11.3672 18.6562 11.2383 18.6562 10.8164V10.1367C18.6562 9.71484 18.5156 9.58594 18.0938 9.58594H17.4141C16.9922 9.58594 16.8516 9.71484 16.8516 10.1367V10.8164C16.8516 11.2383 16.9922 11.3672 17.4141 11.3672ZM5.90625 15.1406H6.59766C7.01953 15.1406 7.16016 15.0117 7.16016 14.5898V13.9102C7.16016 13.4883 7.01953 13.3594 6.59766 13.3594H5.90625C5.49609 13.3594 5.35547 13.4883 5.35547 13.9102V14.5898C5.35547 15.0117 5.49609 15.1406 5.90625 15.1406ZM9.73828 15.1406H10.4297C10.8516 15.1406 10.9922 15.0117 10.9922 14.5898V13.9102C10.9922 13.4883 10.8516 13.3594 10.4297 13.3594H9.73828C9.32812 13.3594 9.1875 13.4883 9.1875 13.9102V14.5898C9.1875 15.0117 9.32812 15.1406 9.73828 15.1406ZM13.582 15.1406H14.2617C14.6836 15.1406 14.8242 15.0117 14.8242 14.5898V13.9102C14.8242 13.4883 14.6836 13.3594 14.2617 13.3594H13.582C13.1602 13.3594 13.0195 13.4883 13.0195 13.9102V14.5898C13.0195 15.0117 13.1602 15.1406 13.582 15.1406ZM17.4141 15.1406H18.0938C18.5156 15.1406 18.6562 15.0117 18.6562 14.5898V13.9102C18.6562 13.4883 18.5156 13.3594 18.0938 13.3594H17.4141C16.9922 13.3594 16.8516 13.4883 16.8516 13.9102V14.5898C16.8516 15.0117 16.9922 15.1406 17.4141 15.1406ZM5.90625 18.9141H6.59766C7.01953 18.9141 7.16016 18.7852 7.16016 18.3633V17.6836C7.16016 17.2617 7.01953 17.1328 6.59766 17.1328H5.90625C5.49609 17.1328 5.35547 17.2617 5.35547 17.6836V18.3633C5.35547 18.7852 5.49609 18.9141 5.90625 18.9141ZM9.73828 18.9141H10.4297C10.8516 18.9141 10.9922 18.7852 10.9922 18.3633V17.6836C10.9922 17.2617 10.8516 17.1328 10.4297 17.1328H9.73828C9.32812 17.1328 9.1875 17.2617 9.1875 17.6836V18.3633C9.1875 18.7852 9.32812 18.9141 9.73828 18.9141ZM13.582 18.9141H14.2617C14.6836 18.9141 14.8242 18.7852 14.8242 18.3633V17.6836C14.8242 17.2617 14.6836 17.1328 14.2617 17.1328H13.582C13.1602 17.1328 13.0195 17.2617 13.0195 17.6836V18.3633C13.0195 18.7852 13.1602 18.9141 13.582 18.9141Z" fill="#7F9688"/>
</svg>
