<svg width="44" height="47" viewBox="0 0 44 47" fill="none" xmlns="http://www.w3.org/2000/svg">
<path fill-rule="evenodd" clip-rule="evenodd" d="M24.2003 32.9999C25.4162 32.9999 26.4003 33.9764 26.4003 35.1999C26.4003 36.415 25.4249 37.3999 24.2024 37.3999H19.7982C18.5843 37.3999 17.6003 36.4234 17.6003 35.1999C17.6003 33.9849 18.5756 32.9999 19.7982 32.9999L19.8003 30.7999C18.5842 30.7999 17.6003 29.8234 17.6003 28.5999C17.6003 27.3849 18.5884 26.3999 19.798 26.3999C19.8053 25.1841 20.7799 24.1999 22.0003 24.1999C23.2153 24.1999 24.2003 25.1921 24.2003 26.4093V32.9999ZM39.5998 11.0004C39.5998 9.78466 38.6179 8.80014 37.4106 8.80014C37.3998 10.0154 36.4233 11.0001 35.1998 11.0001C33.9848 11.0001 32.9998 10.024 32.9998 8.80056L28.5998 8.80014C28.5998 10.0154 27.6233 11.0001 26.3998 11.0001C25.1848 11.0001 24.1998 10.024 24.1998 8.80056L19.7998 8.80014C19.7998 10.0154 18.8233 11.0001 17.5998 11.0001C16.3848 11.0001 15.3998 10.024 15.3998 8.80056L10.9998 8.80014C10.9998 10.0154 10.0233 11.0001 8.79978 11.0001C7.58476 11.0001 6.59978 10.024 6.59978 8.80056C5.38038 8.80014 4.39978 9.78341 4.39978 11.0004V15.4001H39.5998V11.0004ZM4.39978 19.8002V39.5999C4.39978 40.8156 5.38166 41.8002 6.58898 41.8002H37.4106C38.6192 41.8002 39.5998 40.8169 39.5998 39.5999V19.8002H4.39978ZM44 11.0002V39.5998C44 43.2441 41.0521 46.2 37.4108 46.2H6.5892C2.94916 46.2 0 43.2429 0 39.5998V11.0002C0 7.3559 2.94786 4.4 6.5892 4.4L6.6 2.19958C6.6 0.984784 7.5765 0 8.8 0C10.015 0 11 0.976177 11 2.19958V4.4H15.4V2.19958C15.4 0.984784 16.3765 0 17.6 0C18.815 0 19.8 0.976177 19.8 2.19958V4.4H24.2V2.19958C24.2 0.984784 25.1765 0 26.4 0C27.615 0 28.6 0.976177 28.6 2.19958V4.4H33V2.19958C33 0.984784 33.9765 0 35.2 0C36.415 0 37.4 0.976177 37.4 2.19958V4.4C41.0508 4.4 44 7.35713 44 11.0002Z" fill="#CE6161"/>
</svg>
