<svg width="20" height="20" viewBox="0 0 20 20" fill="none" xmlns="http://www.w3.org/2000/svg">
<path fill-rule="evenodd" clip-rule="evenodd" d="M3.63709 18.0952L6.36357 18.0958V12.3786C6.36357 11.8539 6.77017 11.4286 7.26996 11.4286H12.7299C13.2305 11.4286 13.6363 11.8536 13.6363 12.3786V18.0978L16.3636 18.0995V8.96783L9.99993 2.30701L3.63625 8.96788C3.63607 10.7692 3.63709 18.0952 3.63709 18.0952ZM1.55192 11.1496C1.19689 11.5216 0.621289 11.5216 0.266267 11.1496C-0.0887555 10.7777 -0.0887555 10.1747 0.266267 9.80276L9.35718 0.278946C9.7122 -0.092982 10.2878 -0.092982 10.6428 0.278946L19.7337 9.80276C20.0888 10.1747 20.0888 10.7777 19.7337 11.1496C19.3787 11.5216 18.8031 11.5216 18.4481 11.1496L18.1818 10.8709V18.0995C18.1818 19.1509 17.3689 20 16.3628 20H3.63716C2.63348 20 1.81818 19.1509 1.81818 18.0995V10.8709L1.55192 11.1496ZM11.8182 18.0971V13.3318L8.18188 13.3333V18.0962L11.8182 18.0971Z" fill="#D6D9E0"/>
</svg>
