<svg width="74" height="73" viewBox="0 0 74 73" fill="none" xmlns="http://www.w3.org/2000/svg">
<path fill-rule="evenodd" clip-rule="evenodd" d="M47.663 65.1752C55.4872 65.2597 59.3641 63.6794 61.3391 59.8893H59.9129C57.9611 59.8893 56.3788 58.3253 56.3788 56.3656C56.3788 54.4195 57.9408 52.8419 59.9129 52.8419H63.4427C63.7338 51.7245 64.0454 50.5241 64.3579 49.3183H61.6748C59.7229 49.3183 58.1407 47.7542 58.1407 45.7946C58.1407 43.8485 59.7026 42.2709 61.6748 42.2709H66.1788C66.5885 40.6807 66.8601 39.6238 66.8735 39.5692C67.2076 38.0223 66.3589 36.9843 64.7028 36.9843L51.9859 36.9835C46.5705 36.9831 42.5779 32.1536 43.6476 26.8136C43.6842 26.6322 44.6993 21.5051 44.7661 21.1271C45.4944 17.0026 45.8363 14.0557 45.8083 12.3785L45.8084 12.1337C45.8274 11.0816 45.1874 9.96033 43.5024 8.64725C43.313 8.49966 42.074 7.74977 42.074 7.74977L31.915 29.7083C30.0322 33.7778 25.629 36.717 21.1421 36.968V65.1892C32.322 65.1862 46.295 65.1814 47.663 65.1752ZM14.0948 36.9853H7.04606L7.04742 65.1922C7.04742 65.1922 9.89979 65.1917 14.0948 65.1908V36.9853ZM7.046 72.2221C3.1546 72.2221 0 69.0785 0 65.1923V36.9678C0 33.0853 3.15804 29.938 7.046 29.938H20.5217C22.475 29.938 24.6777 28.4297 25.5189 26.7492C26.3602 25.0686 36.4787 3.05997 36.4787 3.05997C37.7188 0.379464 40.9193 -0.784274 43.591 0.563184C43.591 0.563184 46.1566 1.78101 47.8343 3.08841C50.9493 5.5159 52.9208 8.59276 52.8547 12.2607C52.8935 14.5821 52.4742 18.0024 51.7061 22.3525C51.5008 23.515 50.5563 28.2048 50.5563 28.2048C50.3644 29.1626 51.0049 29.936 51.9864 29.936L64.7032 29.9369C70.8348 29.9369 75.0394 35.1002 73.7749 41.0117C73.7365 41.2111 69.296 59.0409 68.4934 61.1103C65.5036 69.2032 58.572 72.3407 47.5869 72.222C42.5454 72.2467 7.046 72.2221 7.046 72.2221Z" fill="#CE6161"/>
</svg>
