<svg width="26" height="26" viewBox="0 0 26 26" fill="none" xmlns="http://www.w3.org/2000/svg">
<path fill-rule="evenodd" clip-rule="evenodd" d="M12.6619 1.12522C12.4518 1.18911 12.1226 1.53008 12.0627 1.74594C12.0357 1.84286 12.0136 2.18539 12.0135 2.50705C12.0132 2.93671 11.998 3.09578 11.956 3.10626C11.9245 3.11413 11.6414 3.18314 11.3268 3.2597C10.0722 3.56489 9.08419 4.13215 8.12136 5.10011C7.18626 6.0402 6.58683 7.15715 6.29034 8.51189C6.19826 8.93253 6.18737 9.15077 6.15566 11.2118C6.12422 13.2546 6.11246 13.4937 6.02354 13.898C5.71662 15.2935 5.10821 16.3582 4.00205 17.4355C3.38354 18.0378 3.25032 18.2974 3.25 18.9008C3.24977 19.275 3.26382 19.3421 3.3996 19.618C3.58521 19.995 3.94677 20.3386 4.31388 20.4868L4.57687 20.593L12.814 20.6067C18.8237 20.6166 21.1254 20.6062 21.3257 20.5683C22.0505 20.431 22.5681 19.918 22.7191 19.1871C22.7814 18.8856 22.7506 18.5994 22.6168 18.2363C22.5396 18.0269 22.4301 17.8909 21.9658 17.4274C20.954 16.4174 20.4252 15.5679 20.0918 14.4166C19.8663 13.6379 19.8389 13.3174 19.8379 11.4407C19.8364 8.78303 19.7346 8.14387 19.1093 6.86446C18.3722 5.35637 17.1189 4.18057 15.5783 3.55184C15.1429 3.37415 14.2909 3.13486 14.0936 3.13486C13.9926 3.13486 13.9907 3.12379 13.9743 2.45987C13.9586 1.81957 13.9512 1.77376 13.8308 1.56875C13.6057 1.18531 13.098 0.992698 12.6619 1.12522ZM9.40476 21.595C9.40476 21.6725 9.6208 22.2855 9.71287 22.4693C10.1645 23.3704 11.0446 24.0926 12.0361 24.3754C12.5116 24.5111 13.4297 24.5221 13.8894 24.3977C14.6129 24.2019 15.356 23.726 15.8126 23.166C16.0657 22.8557 16.4089 22.198 16.5165 21.8172L16.5844 21.5769H12.9946C11.0202 21.5769 9.40476 21.5851 9.40476 21.595Z" fill="#7F9688"/>
</svg>
