<svg width="40" height="40" viewBox="0 0 40 40" fill="none" xmlns="http://www.w3.org/2000/svg">
<rect width="40" height="40" rx="20" fill="white"/>
<path fill-rule="evenodd" clip-rule="evenodd" d="M15.1758 12.0376C14.964 12.1156 14.7695 12.2452 14.4599 12.5146C14.2949 12.6582 14.0393 12.8751 13.892 12.9967C12.4868 14.1564 11.8056 15.9736 12.0482 17.9158C12.3254 20.135 13.6585 22.5086 16.1017 25.1329C18.0422 27.2174 19.9968 28.48 21.9443 28.9072C22.3359 28.9931 22.4144 28.999 23.1663 28.9999C23.8758 29.0008 24.0098 28.9922 24.311 28.9267C25.212 28.7306 26.0557 28.3075 26.7321 27.7124C27.5536 26.9897 27.6899 26.8612 27.792 26.7132C28.1837 26.1456 28.0245 25.5313 27.294 24.7922C26.806 24.2985 25.9079 23.5527 25.4799 23.2858C24.7127 22.8074 24.0694 22.7213 23.4927 23.0199C23.2334 23.1542 22.8412 23.4757 22.2899 24.0061C21.8219 24.4563 21.6364 24.5629 21.2773 24.5884C20.4333 24.6484 19.2504 23.8027 17.8232 22.1189C16.9642 21.1055 16.4121 20.1987 16.254 19.5417C16.0853 18.8406 16.2495 18.4093 16.8532 17.9678C17.2995 17.6415 17.9038 17.1079 18.0605 16.9017C18.5692 16.2325 18.4848 15.4262 17.7832 14.2542C17.3182 13.4773 16.8467 12.8146 16.5432 12.5114C16.1489 12.1173 15.9495 12.0132 15.5661 12.001C15.4025 11.9959 15.2506 12.0101 15.1758 12.0376Z" fill="#136849"/>
</svg>
