<svg width="12" height="12" viewBox="0 0 12 12" fill="none" xmlns="http://www.w3.org/2000/svg">
<path fill-rule="evenodd" clip-rule="evenodd" d="M12 6C12 9.31371 9.31371 12 6 12C2.68629 12 0 9.31371 0 6C0 2.68629 2.68629 0 6 0C9.31371 0 12 2.68629 12 6ZM1.2 6C1.2 8.65097 3.34903 10.8 6 10.8C8.65097 10.8 10.8 8.65097 10.8 6C10.8 3.34903 8.65097 1.2 6 1.2C3.34903 1.2 1.2 3.34903 1.2 6ZM3 6C3 5.66863 3.26946 5.4 3.59724 5.4H8.40276C8.73261 5.4 9 5.66632 9 6C9 6.33137 8.73054 6.6 8.40276 6.6H3.59724C3.26739 6.6 3 6.33368 3 6Z" fill="#CE6161"/>
</svg>
