<svg width="24" height="24" viewBox="0 0 24 24" fill="none" xmlns="http://www.w3.org/2000/svg">
<path fill-rule="evenodd" clip-rule="evenodd" d="M6.61649 0.0274522C1.96003 0.468082 -0.985012 3.0083 0.307972 5.46883C1.06019 6.90025 3.12481 7.98348 5.86775 8.38567C6.81963 8.52528 8.69252 8.53748 9.64318 8.41026C13.2619 7.92604 15.6983 6.17506 15.5658 4.15384C15.4366 2.18452 13.0895 0.581595 9.61972 0.0931948C9.02001 0.00882281 7.22816 -0.0304538 6.61649 0.0274522ZM0.000703882 8.08709C0.00150161 8.89191 0.0668688 9.23329 0.307972 9.69213C1.18848 11.3678 3.90715 12.5697 7.1689 12.7254L7.83078 12.757L8.01313 12.3628C8.36695 11.5978 8.86722 10.8497 9.4979 10.1424C9.76819 9.83928 9.8077 9.77622 9.71268 9.79973C9.40635 9.8756 8.07324 9.93778 7.32037 9.91136C4.46829 9.81127 2.05327 9.0477 0.410598 7.7267L0 7.39653L0.000703882 8.08709ZM15.4232 8.56911C12.796 8.87445 10.4859 10.5028 9.33577 12.8602C8.50777 14.5572 8.32523 16.5037 8.82372 18.3208C9.81441 21.9318 13.335 24.3432 17.0574 23.9602C20.5198 23.604 23.2689 21.0402 23.9162 17.5638C24.0279 16.9635 24.0279 15.561 23.9162 14.9607C23.4785 12.6103 22.1244 10.6931 20.0699 9.51569C18.73 8.7477 16.9705 8.38929 15.4232 8.56911ZM16.987 12.1013V12.8676L17.2317 12.9812C17.8301 13.2591 18.3915 14.1014 18.3942 14.7254L18.3948 14.8545H17.6909C17.0884 14.8545 16.987 14.8441 16.987 14.7822C16.987 14.7425 16.9445 14.6266 16.8926 14.5248C16.7863 14.3166 16.516 14.1506 16.2831 14.1506C16.0503 14.1506 15.78 14.3166 15.6737 14.5248C15.6218 14.6266 15.5793 14.775 15.5793 14.8545C15.5793 15.2101 15.9353 15.5584 16.2989 15.5584C16.8248 15.5584 17.3694 15.7927 17.7633 16.1885C18.608 17.037 18.5984 18.3349 17.7414 19.1711C17.5956 19.3133 17.3662 19.4808 17.2317 19.5433L16.987 19.6569V20.4232V21.1894H16.2831H15.5793V20.4232V19.6569L15.3346 19.5433C14.7362 19.2654 14.1747 18.4231 14.1721 17.7991L14.1715 17.67H14.8754C15.4778 17.67 15.5793 17.6804 15.5793 17.7423C15.5793 17.782 15.6218 17.8979 15.6737 17.9997C15.78 18.2079 16.0503 18.3739 16.2831 18.3739C16.6402 18.3739 16.987 18.0271 16.987 17.67C16.987 17.3043 16.6396 16.9661 16.2638 16.9661C15.7502 16.9661 15.203 16.7292 14.8042 16.3341C13.9581 15.4959 13.9671 14.1903 14.8249 13.3534C14.9707 13.2112 15.2 13.0437 15.3346 12.9812L15.5793 12.8676V12.1013V11.3351H16.2831H16.987V12.1013ZM0.000703882 12.3082C0.00150161 13.1197 0.0665403 13.456 0.31365 13.9263C0.52397 14.3264 1.02725 14.8741 1.52362 15.2428C1.96153 15.5682 2.92219 16.0491 3.59355 16.2792C4.50681 16.5921 5.68863 16.827 6.71034 16.8987L7.15613 16.9301L7.16233 16.1152C7.16692 15.5129 7.19456 15.1545 7.26838 14.7415C7.32328 14.4342 7.35725 14.1719 7.34383 14.1584C7.33046 14.145 7.05046 14.1162 6.7216 14.0943C4.13376 13.9224 1.87721 13.1437 0.34021 11.8924L0 11.6154L0.000703882 12.3082ZM0.000703882 16.5315C0.00150161 17.3386 0.0666811 17.6795 0.307972 18.1387C1.21063 19.8565 4.01339 21.0617 7.36978 21.1754C7.8228 21.1908 8.26958 21.189 8.36263 21.1716L8.5318 21.1399L8.18572 20.4705C7.87479 19.8691 7.41647 18.6731 7.41483 18.4589C7.41413 18.3697 7.29827 18.3484 6.56956 18.3038C5.90407 18.2631 4.91033 18.1067 4.18613 17.9287C2.63228 17.5468 1.36318 16.9485 0.34021 16.1157L0 15.8387L0.000703882 16.5315Z" fill="#7F9688"/>
</svg>
