<?xml version="1.0" encoding="utf-8"?>
<!-- Generator: Adobe Illustrator 26.0.3, SVG Export Plug-In . SVG Version: 6.00 Build 0)  -->
<svg version="1.1" id="Layer_1" xmlns="http://www.w3.org/2000/svg" xmlns:xlink="http://www.w3.org/1999/xlink" x="0px" y="0px"
	 viewBox="0 0 36 36" style="enable-background:new 0 0 36 36;" xml:space="preserve">
<style type="text/css">
	.st0{fill:#156A4B;}
	.st1{fill:#EC2527;}
</style>
<g>
	<g>
		<path class="st0" d="M13.63,11.54L7.92,28.53h9.46L19.85,36C7.64,35.93,1.82,35.94,0,35.98c1.75-5.57,7.59-23.48,11.6-35.84
			L15.37,0l12.01,36H22.1L13.63,11.54z"/>
	</g>
	<g>
		<path class="st1" d="M36,13.17c0,7.25-2.73,13.14-6.11,13.14h-3.51l-3.01-8.52h5.1c0.56,0,1.07-0.49,1.44-1.29
			c0.37-0.8,0.6-1.89,0.6-3.1c0-2.42-0.91-4.37-2.03-4.37h-8.11l-3.01-8.99H29.9c1.69,0,3.22,1.46,4.32,3.84
			C35.32,6.26,36,9.55,36,13.17z"/>
	</g>
</g>
</svg>
