<svg width="20" height="20" viewBox="0 0 20 20" fill="none" xmlns="http://www.w3.org/2000/svg">
<path fill-rule="evenodd" clip-rule="evenodd" d="M9.17252 10.5539C9.01304 10.3104 8.95268 9.99593 9.06777 9.66836L11.6985 2.18051C11.1511 2.06216 10.5828 1.99983 10 1.99983C5.58172 1.99983 2 5.58155 2 9.99983C2 14.4181 5.58172 17.9998 10 17.9998C11.2829 17.9998 12.4953 17.6979 13.5699 17.1611L9.17252 10.5539ZM18 9.99973C18 8.86447 17.7635 7.78445 17.3372 6.80622L11.4221 10.3241L15.2334 16.0507C16.928 14.5837 18 12.4169 18 9.99973ZM20 10C20 15.5228 15.5228 20 10 20C4.47715 20 0 15.5228 0 10C0 4.47715 4.47715 0 10 0C15.5375 0 20 4.49878 20 10Z" fill="#D6D9E0"/>
</svg>
