<svg width="22" height="23" viewBox="0 0 22 23" fill="none" xmlns="http://www.w3.org/2000/svg">
<path fill-rule="evenodd" clip-rule="evenodd" d="M12.0478 16.4284C12.6531 16.4284 13.143 16.9146 13.143 17.5237C13.143 18.1285 12.6575 18.6189 12.0488 18.6189H9.85627C9.25196 18.6189 8.76208 18.1328 8.76208 17.5237C8.76208 16.9188 9.24765 16.4284 9.85627 16.4284L9.85731 15.3332C9.25192 15.3332 8.76208 14.8471 8.76208 14.238C8.76208 13.6331 9.25398 13.1427 9.85617 13.1427C9.85981 12.5374 10.345 12.0475 10.9526 12.0475C11.5574 12.0475 12.0478 12.5414 12.0478 13.1474V16.4284ZM19.7142 5.47645C19.7142 4.87123 19.2254 4.3811 18.6244 4.3811C18.619 4.98608 18.1329 5.47634 17.5238 5.47634C16.9189 5.47634 16.4285 4.99036 16.4285 4.38131L14.238 4.3811C14.238 4.98608 13.7519 5.47634 13.1428 5.47634C12.5379 5.47634 12.0476 4.99036 12.0476 4.38131L9.85709 4.3811C9.85709 4.98608 9.37096 5.47634 8.76186 5.47634C8.15697 5.47634 7.66662 4.99036 7.66662 4.38131L5.47614 4.3811C5.47614 4.98608 4.99 5.47634 4.3809 5.47634C3.77602 5.47634 3.28567 4.99036 3.28567 4.38131C2.67861 4.3811 2.19043 4.87061 2.19043 5.47645V7.66681H19.7142V5.47645ZM2.19043 9.85729V19.7143C2.19043 20.3195 2.67924 20.8097 3.28029 20.8097H18.6244C19.2261 20.8097 19.7142 20.3202 19.7142 19.7143V9.85729H2.19043ZM21.9048 5.47631V19.7142C21.9048 21.5284 20.4372 23 18.6244 23H3.28034C1.4682 23 0 21.5278 0 19.7142V5.47631C0 3.66203 1.46755 2.19048 3.28034 2.19048L3.28571 1.09503C3.28571 0.49026 3.77185 0 4.38095 0C4.98584 0 5.47619 0.485975 5.47619 1.09503V2.19048H7.66667V1.09503C7.66667 0.49026 8.15281 0 8.76191 0C9.36679 0 9.85714 0.485975 9.85714 1.09503V2.19048H12.0476V1.09503C12.0476 0.49026 12.5338 0 13.1429 0C13.7477 0 14.2381 0.485975 14.2381 1.09503V2.19048H16.4286V1.09503C16.4286 0.49026 16.9147 0 17.5238 0C18.1287 0 18.619 0.485975 18.619 1.09503V2.19048C20.4366 2.19048 21.9048 3.66264 21.9048 5.47631Z" fill="#9C9EB9"/>
</svg>
