<svg width="20" height="20" viewBox="0 0 20 20" fill="none" xmlns="http://www.w3.org/2000/svg">
<path fill-rule="evenodd" clip-rule="evenodd" d="M11.0002 14.2857C11.553 14.2857 12.0002 14.7084 12.0002 15.2381C12.0002 15.7641 11.5569 16.1905 11.0012 16.1905H8.9993C8.44753 16.1905 8.00024 15.7677 8.00024 15.2381C8.00024 14.7121 8.4436 14.2857 8.9993 14.2857L9.00024 13.3333C8.44749 13.3333 8.00024 12.9106 8.00024 12.3809C8.00024 11.8549 8.44937 11.4285 8.9992 11.4285C9.00252 10.9022 9.44553 10.4762 10.0002 10.4762C10.5525 10.4762 11.0002 10.9057 11.0002 11.4326V14.2857ZM18 4.76206C18 4.23578 17.5537 3.80958 17.0049 3.80958C17 4.33565 16.5561 4.76196 16 4.76196C15.4477 4.76196 15 4.33938 15 3.80977L13 3.80958C13 4.33565 12.5561 4.76196 12 4.76196C11.4477 4.76196 11 4.33938 11 3.80977L9 3.80958C9 4.33565 8.55614 4.76196 8 4.76196C7.44771 4.76196 7 4.33938 7 3.80977L5 3.80958C5 4.33565 4.55614 4.76196 4 4.76196C3.44772 4.76196 3 4.33938 3 3.80977C2.44573 3.80958 2 4.23524 2 4.76206V6.66673H18V4.76206ZM2 8.5715V17.1428C2 17.6691 2.44631 18.0953 2.99509 18.0953H17.0049C17.5543 18.0953 18 17.6696 18 17.1428V8.5715H2ZM20 4.76201V17.1428C20 18.7204 18.6601 20 17.0049 20H2.99509C1.34053 20 0 18.7199 0 17.1428V4.76201C0 3.18437 1.33994 1.90476 2.99509 1.90476L3 0.952198C3 0.426313 3.44386 0 4 0C4.55228 0 5 0.422587 5 0.952198V1.90476H7V0.952198C7 0.426313 7.44386 0 8 0C8.55229 0 9 0.422587 9 0.952198V1.90476H11V0.952198C11 0.426313 11.4439 0 12 0C12.5523 0 13 0.422587 13 0.952198V1.90476H15V0.952198C15 0.426313 15.4439 0 16 0C16.5523 0 17 0.422587 17 0.952198V1.90476C18.6595 1.90476 20 3.1849 20 4.76201Z" fill="#D6D9E0"/>
</svg>
