<svg width="80" height="80" viewBox="0 0 80 80" fill="none" xmlns="http://www.w3.org/2000/svg">
<path d="M25.2632 0H54.7368C68.6893 0 80 11.3107 80 25.2632V54.7368C80 68.6893 68.6893 80 54.7368 80H25.2632C11.3107 80 0 68.6893 0 54.7368V25.2632C0 11.3107 11.3107 0 25.2632 0Z" fill="#E4DFFF"/>
<path fill-rule="evenodd" clip-rule="evenodd" d="M48 18C49.1046 18 50 18.8867 50 19.9981L53.9983 20C56.2089 20 58 21.7859 58 23.9997V56.0003C58 58.2111 56.2135 60 53.9983 60H26.0017C23.7911 60 22 58.2141 22 56.0003V23.9997C22 21.7889 23.7865 20 26.0017 20H30C30 18.8946 30.8877 18 32 18C33.1046 18 34 18.8867 34 19.9981L38 20C38 18.8946 38.8877 18 40 18C41.1046 18 42 18.8867 42 19.9981L46 20C46 18.8946 46.8877 18 48 18ZM42 23.9989C42 25.1054 41.1123 26 40 26C38.8954 26 38 25.1133 38 24.0019C36.622 23.9986 35.2703 23.9985 34 23.9985C34 25.1054 33.1123 26 32 26C30.8954 26 30 25.1133 30 24.0019C27.5847 23.9987 26 23.9997 26 23.9997L26.0017 56L54 56.0003L53.9983 24C53.9983 24 52.4144 23.9998 50 23.9996C50 25.1054 49.1123 26 48 26C46.8954 26 46 25.1133 46 24.0019C44.7297 23.9991 43.378 23.999 42 23.9989ZM40 35C40 33.8954 40.902 33 42.0085 33H49.9915C51.1007 33 52 33.8877 52 35C52 36.1046 51.098 37 49.9915 37H42.0085C40.8993 37 40 36.1123 40 35ZM40 46C40 44.8954 40.902 44 42.0085 44H49.9915C51.1007 44 52 44.8877 52 46C52 47.1046 51.098 48 49.9915 48H42.0085C40.8993 48 40 47.1123 40 46ZM30.5858 36.4142L28.5858 34.4142C27.8047 33.6332 27.8047 32.3668 28.5858 31.5858C29.3668 30.8047 30.6332 30.8047 31.4142 31.5858L32.0004 32.172L34.5858 29.5858C35.3668 28.8047 36.6332 28.8047 37.4142 29.5858C38.1953 30.3668 38.1953 31.6332 37.4142 32.4142L33.4142 36.4142C32.6332 37.1953 31.3668 37.1953 30.5858 36.4142ZM30.5858 47.4142L28.5858 45.4142C27.8047 44.6332 27.8047 43.3668 28.5858 42.5858C29.3668 41.8047 30.6332 41.8047 31.4142 42.5858L32.0039 43.1754L34.5858 40.5858C35.3668 39.8047 36.6332 39.8047 37.4142 40.5858C38.1953 41.3668 38.1953 42.6332 37.4142 43.4142L33.4142 47.4142C32.6332 48.1953 31.3668 48.1953 30.5858 47.4142Z" fill="white"/>
</svg>
