<svg width="80" height="80" viewBox="0 0 80 80" fill="none" xmlns="http://www.w3.org/2000/svg">
<path d="M25.2632 0H54.7368C68.6893 0 80 11.3107 80 25.2632V54.7368C80 68.6893 68.6893 80 54.7368 80H25.2632C11.3107 80 0 68.6893 0 54.7368V25.2632C0 11.3107 11.3107 0 25.2632 0Z" fill="#CE6161"/>
<path fill-rule="evenodd" clip-rule="evenodd" d="M41.0005 45.5712C42.1059 45.5712 43.0005 46.4167 43.0005 47.476C43.0005 48.5279 42.1138 49.3807 41.0024 49.3807H36.9986C35.8951 49.3807 35.0005 48.5353 35.0005 47.476C35.0005 46.424 35.8872 45.5712 36.9986 45.5712L37.0005 43.6664C35.895 43.6664 35.0005 42.821 35.0005 41.7617C35.0005 40.7097 35.8987 39.8569 36.9984 39.8569C37.005 38.8042 37.8911 37.9521 39.0005 37.9521C40.1051 37.9521 41.0005 38.8111 41.0005 39.865V45.5712ZM55 26.5241C55 25.4715 54.1074 24.6191 53.0098 24.6191C53 25.6713 52.1123 26.5239 51 26.5239C49.8954 26.5239 49 25.6787 49 24.6195L45 24.6191C45 25.6713 44.1123 26.5239 43 26.5239C41.8954 26.5239 41 25.6787 41 24.6195L37 24.6191C37 25.6713 36.1123 26.5239 35 26.5239C33.8954 26.5239 33 25.6787 33 24.6195L29 24.6191C29 25.6713 28.1123 26.5239 27 26.5239C25.8954 26.5239 25 25.6787 25 24.6195C23.8915 24.6191 23 25.4705 23 26.5241V30.3334H55V26.5241ZM23 34.1426V51.2852C23 52.3378 23.8926 53.1902 24.9902 53.1902H53.0098C54.1085 53.1902 55 52.3389 55 51.2852V34.1426H23ZM59 26.524V51.2855C59 54.4408 56.3201 57 53.0098 57H24.9902C21.6811 57 19 54.4397 19 51.2855V26.524C19 23.3687 21.6799 20.8095 24.9902 20.8095L25 18.9044C25 17.8526 25.8877 17 27 17C28.1046 17 29 17.8452 29 18.9044V20.8095H33V18.9044C33 17.8526 33.8877 17 35 17C36.1046 17 37 17.8452 37 18.9044V20.8095H41V18.9044C41 17.8526 41.8877 17 43 17C44.1046 17 45 17.8452 45 18.9044V20.8095H49V18.9044C49 17.8526 49.8877 17 51 17C52.1046 17 53 17.8452 53 18.9044V20.8095C56.3189 20.8095 59 23.3698 59 26.524Z" fill="white"/>
</svg>
