<svg width="80" height="80" viewBox="0 0 80 80" fill="none" xmlns="http://www.w3.org/2000/svg">
<path d="M25.2632 0H54.7368C68.6893 0 80 11.3107 80 25.2632V54.7368C80 68.6893 68.6893 80 54.7368 80H25.2632C11.3107 80 0 68.6893 0 54.7368V25.2632C0 11.3107 11.3107 0 25.2632 0Z" fill="#CE6161"/>
<path fill-rule="evenodd" clip-rule="evenodd" d="M65 48C65 56.2843 58.2843 63 50 63C44.9087 63 40.4098 60.4635 37.6982 56.5852L35.0062 55.2392L31.8973 56.7886C31.3343 57.0703 30.6716 57.0705 30.1085 56.7891L27.0057 55.2386L23.8944 56.7889C22.5646 57.4538 21 56.4868 21 55V20.9997C21 18.7889 22.7865 17 25.0017 17H52.9983C55.2089 17 57 18.7859 57 20.9997V34.7301C61.7578 37.2451 65 42.2439 65 48ZM52.9983 21.0003L25 21V51.7614L26.1056 51.2114C26.6685 50.93 27.331 50.9299 27.894 51.2112L31.02 52.7713L34.1051 51.2117C34.4804 51.0239 34.9 50.9612 35.3048 51.0236C35.105 50.0471 35 49.0359 35 48.0003C35 46.9729 35.1033 45.9696 35.3001 45.0003H31.0009C29.8958 45.0003 29 44.1126 29 43.0003C29 41.8957 29.9016 41.0003 31.0009 41.0003H36.7301C39.2451 36.2425 44.2439 33.0003 50 33.0003C51.0291 33.0003 52.0339 33.1039 53.0047 33.3013C53.0025 26.7634 52.9983 21.0003 52.9983 21.0003ZM29 35C29 33.8954 29.8867 33 30.9981 33H35.0019C36.1054 33 37 33.8877 37 35C37 36.1046 36.1133 37 35.0019 37H30.9981C29.8946 37 29 36.1123 29 35ZM29 27C29 25.8954 29.8982 25 30.9908 25H47.0092C48.1087 25 49 25.8877 49 27C49 28.1046 48.1018 29 47.0092 29H30.9908C29.8913 29 29 28.1123 29 27ZM50 59C56.0751 59 61 54.0751 61 48C61 41.9249 56.0751 37 50 37C43.9249 37 39 41.9249 39 48C39 54.0751 43.9249 59 50 59ZM46.5857 54.4141L42.5862 50.4141C41.8052 49.633 41.8053 48.3667 42.5864 47.5857C43.3675 46.8047 44.6338 46.8048 45.4148 47.5859L48.0234 50.1948L54.5858 43.5858C55.3668 42.8047 56.6332 42.8047 57.4142 43.5858C58.1953 44.3668 58.1953 45.6332 57.4142 46.4142L49.4142 54.4142C48.6331 55.1953 47.3667 55.1953 46.5857 54.4141Z" fill="white"/>
</svg>
