<svg width="80" height="80" viewBox="0 0 80 80" fill="none" xmlns="http://www.w3.org/2000/svg">
<path d="M25.2632 0H54.7368C68.6893 0 80 11.3107 80 25.2632V54.7368C80 68.6893 68.6893 80 54.7368 80H25.2632C11.3107 80 0 68.6893 0 54.7368V25.2632C0 11.3107 11.3107 0 25.2632 0Z" fill="#CE6161"/>
<path fill-rule="evenodd" clip-rule="evenodd" d="M52.5731 54.8233L43.6819 45.9321L41.625 47.9889C41.0037 48.6102 39.9964 48.6102 39.3751 47.9889L37.3182 45.9321L28.4316 54.8186L52.5731 54.8233ZM35.0683 43.6817L26.1816 34.795L26.1818 52.5681L35.0683 43.6817ZM54.8186 34.7955L45.9321 43.682L54.8186 52.5685V34.7955ZM51.636 26.1817H29.3633V33.488L40.4996 44.6662L51.636 33.488V26.1817ZM54.9674 28.3987C56.6422 28.9316 58 30.7837 58 32.5376V54.826C58 56.579 56.5737 58 54.8167 58H26.1833C24.4252 58 23 56.5799 23 54.826V32.5376C23 30.7847 24.3587 28.9313 26.0295 28.3997L26.1818 28.3512V24.5956C26.1818 23.7144 26.8897 23 27.7725 23H53.2275C54.106 23 54.8182 23.7136 54.8182 24.5956V28.3512L54.9674 28.3987Z" fill="white"/>
</svg>
